<?xml version="1.0" standalone="no"?>
<!DOCTYPE svg PUBLIC "-//W3C//DTD SVG 20010904//EN"
 "http://www.w3.org/TR/2001/REC-SVG-20010904/DTD/svg10.dtd">
<svg version="1.0" xmlns="http://www.w3.org/2000/svg"
 width="220.000000pt" height="220.000000pt" viewBox="0 0 220.000000 220.000000"
 preserveAspectRatio="xMidYMid meet">
<metadata>
Created by potrace 1.14, written by Peter Selinger 2001-2017
</metadata>
<g transform="translate(0.000000,220.000000) scale(0.100000,-0.100000)"
fill="#000000" stroke="none">
<path d="M0 1100 l0 -1100 1100 0 1100 0 0 1100 0 1100 -1100 0 -1100 0 0
-1100z m576 665 c22 -30 17 -76 -30 -274 -46 -191 -66 -297 -65 -341 l0 -25
11 25 c130 303 291 511 462 596 123 60 256 57 311 -8 57 -67 57 -158 0 -432
-19 -93 -33 -172 -30 -174 3 -3 5 0 5 7 0 23 112 235 163 311 29 41 90 114
137 161 68 68 102 94 171 128 178 89 325 59 369 -75 16 -49 9 -137 -34 -440
-39 -267 -56 -448 -56 -592 0 -110 -12 -167 -43 -200 -38 -41 -77 -56 -152
-56 -85 -1 -135 21 -167 73 -21 33 -23 47 -22 171 1 92 11 203 32 350 44 309
45 322 29 344 -13 17 -15 17 -45 2 -94 -49 -252 -364 -337 -670 -43 -158 -61
-201 -97 -231 -38 -32 -101 -48 -157 -40 -57 9 -120 69 -146 141 -30 84 -30
248 -1 490 30 243 32 297 12 313 -69 58 -248 -280 -350 -659 -59 -220 -94
-271 -191 -286 -63 -9 -117 10 -158 55 -69 76 -92 221 -84 521 3 113 13 252
22 310 20 125 78 357 101 402 47 93 119 129 252 125 60 -2 77 -6 88 -22z"/>
</g>
</svg>
